<?xml version="1.0" encoding="UTF-8"?>
<svg id="Layer_1" xmlns="http://www.w3.org/2000/svg" version="1.1" viewBox="0 0 36 36">
  <!-- Generator: Adobe Illustrator 29.3.1, SVG Export Plug-In . SVG Version: 2.1.0 Build 151)  -->
  <path d="M3.2,25.6v-.9c.6,0,.9,0,1-.1s.2,0,.3-.2.2-.2.2-.3c0-.1.3-.7.7-1.6.2-.4.5-1.3,1.1-2.6l2.8-6.9.9-2.4h1.5l4.8,11.2.7,1.5.4,1c0,.1.1.2.2.3s.1.1.2.1c0,0,.3,0,.6,0,.1,0,.3,0,.5,0v.9h-3c0,0-3.8,0-3.8,0v-.9c.9,0,1.4,0,1.5-.1.1,0,.2-.2.2-.3s0-.5-.2-.9l-.9-2.4h-5.5l-.5,1.3c-.4,1-.5,1.6-.5,1.9s0,.3.2.4c.2.1.7.2,1.5.2v.9h-2.5c0,0-2.5,0-2.5,0ZM8,19.7c.7,0,1.4,0,2.3,0s1.6,0,2.2,0l-2.3-5.6-2.2,5.6Z"/>
  <path d="M20.5,11.4v-.9h3.2c0,0,4.8,0,4.8,0,.9,0,1.7,0,2.2.3.5.2,1,.5,1.4,1.1s.6,1.2.6,2-.2,1.6-.6,2.3c-.4.7-1,1.3-1.8,1.7-.8.4-1.7.7-2.6.7s-.5,0-.7,0c-.2,0-.4,0-.7-.1,0-.2-.2-.5-.4-.8l.2-.2c.2,0,.3,0,.4.1.1,0,.3,0,.4,0,.7,0,1.3-.2,1.7-.7.5-.5.7-1.2.7-2.1s-.2-1.7-.7-2.2c-.5-.5-1.1-.7-2-.7s-.9,0-1.3.1c0,.4,0,1.1,0,2v2.1s0,4.1,0,4.1c0,1,0,2,0,3.1,0,.6,0,1,.1,1.2,0,0,0,.1.1.2s.2,0,.4.1h1.5v1c-1.8,0-3.2,0-4.1,0s-2,0-2.9,0v-.9c.8,0,1.3,0,1.5-.2,0,0,.1,0,.2-.2,0-.1,0-.4.1-.8,0-1.1.1-2.4.1-3.8v-5.8c0-.9,0-1.4,0-1.6,0-.2,0-.4-.1-.5,0,0,0-.1-.1-.2s-.2,0-.4-.1h-1.2Z"/>
</svg>